<svg width="1003" height="651" viewBox="0 0 1003 651" fill="none" xmlns="http://www.w3.org/2000/svg">
<g clip-path="url(#clip0)">
<path d="M264.83 35.4C266.11 35.22 267 34.98 267.89 34.97C286.42 34.8 304.94 34.58 323.47 34.54C332.3 34.52 341.14 34.76 349.97 35.03C356.77 35.24 362.67 38.09 367.91 42.16C373.42 46.44 374.16 52.65 373.38 59.04C372.83 63.58 371.84 68.07 370.85 72.54C370.21 75.43 370.79 77.72 373.14 79.55C386.62 90.03 400.03 100.58 413.6 110.94C417.65 114.03 419.79 113.74 423.9 110.5C432.3 103.86 440.6 97.11 449.03 90.51C451.97 88.21 455.08 86.11 458.23 84.12C462.04 81.71 464.94 78.56 466.34 74.3C469.34 65.2 472.23 56.06 475 46.89C475.95 43.74 475.41 42.66 472.07 42.04C467.76 41.24 463.33 41.07 458.95 40.66C457.4 40.52 455.8 40.54 455.63 38.08C465.42 36.71 475.48 37.75 485.08 35.17C485.08 34.86 485.09 34.54 485.09 34.23C484.24 34 483.39 33.56 482.55 33.58C473.81 33.85 465.07 34.01 456.35 34.62C454.03 34.78 451.64 36.09 449.62 37.41C448.58 38.09 448.14 39.88 447.71 41.26C447.35 42.43 447.39 43.72 447.25 44.96C447.03 44.97 446.8 44.98 446.58 45C446.32 43.42 445.95 41.86 445.81 40.27C444.87 29.8 446.51 19.81 451.35 10.39C454.6 4.04998 459.83 1.73999 466.68 2.27999C468.35 2.40999 469.53 2.90999 469.55 4.75999C469.62 9.97999 472.36 13.65 476.26 16.73C478.79 18.73 481.08 21.05 483.67 22.95C487.67 25.88 490.29 25.66 493.79 22.09C496.35 19.49 498.71 16.68 500.99 13.84C502.05 12.51 503.19 11.99 504.85 11.95C507.82 11.87 510.78 11.57 513.75 11.36C515.77 11.22 516.93 10.34 516.48 7.74999C502.51 7.74999 488.47 7.74999 474.49 7.74999C473.77 2.69999 475.31 0.199985 479.76 0.159985C491.99 0.0499851 504.26 -0.290015 516.43 0.659985C521.95 1.08999 527.27 4.28999 532.62 6.38999C533.23 6.62999 533.72 7.79999 533.85 8.59999C536.41 25.13 538.91 41.67 541.42 58.2C542.48 65.17 543.43 72.15 544.65 79.09C544.92 80.64 545.81 82.43 546.99 83.43C558.74 93.34 570.62 103.11 582.44 112.94C583.71 114 584.86 114.18 586.29 113.18C591.02 109.88 595.98 106.88 600.52 103.35C610.18 95.85 619.6 88.03 629.22 80.47C632.32 78.03 633.1 75.3 632.07 71.54C630.45 65.65 628.94 59.71 629.47 53.49C629.96 47.68 632.8 43.27 637.83 40.6C644.65 36.97 651.6 34.23 659.76 34.39C684.65 34.88 709.56 34.76 734.46 34.89C735.7 34.9 736.94 35 738.53 35.08C738.05 36.09 737.84 36.83 737.41 37.4C730.94 45.77 723.83 53.49 714.75 59.16C709.69 62.32 704.11 63.43 698.23 63.58C689.23 63.81 680.22 64.08 671.22 64.45C670.17 64.49 668.84 64.99 668.17 65.75C645.04 91.7 618.73 114.35 593.2 137.8C588.26 142.34 583.34 146.92 578.53 151.61C577.58 152.54 576.85 153.96 576.55 155.27C572.17 174.71 569.67 194.37 569.49 214.34C569.28 237.45 568.87 260.57 568.35 283.68C568.16 292.25 567.48 300.82 566.89 309.37C566.61 313.47 565.61 314.81 563.17 315.22C559.45 315.85 556.89 314.62 555.55 310.91C554.58 308.23 554.41 305.27 553.66 302.5C552.98 299.98 552.33 297.37 551.09 295.11C548.23 289.86 542.39 289 537.03 290.42C534.63 291.05 533.99 293.25 533.77 295.43C533.4 299.23 533.12 303.05 532.87 306.86C532.73 308.93 531.89 310.32 529.68 310.38C527.14 310.45 527.2 308.42 527.18 306.77C527.06 294.7 527.01 282.63 526.95 270.56C526.93 267.5 526.77 264.43 527.01 261.39C527.19 259.09 526.2 257.74 524.29 257.11C519.96 255.69 515.61 253.55 511.19 253.35C501.72 252.93 492.21 253.51 482.71 253.8C481.31 253.84 479.89 254.41 478.56 254.94C473.48 256.99 472.65 258.34 472.6 263.79C472.47 278.32 472.32 292.85 472.09 307.38C472.07 308.39 471.2 310.26 470.89 310.23C469.57 310.09 467.69 309.73 467.17 308.8C466.04 306.8 465.42 304.45 464.98 302.16C464.58 300.1 464.8 297.92 464.55 295.82C464.19 292.9 462.86 291.53 460.05 291.13C456.06 290.57 452.28 291.26 448.79 293.37C446.06 295.02 445.04 297.66 444.55 300.58C444.15 303.01 443.96 305.47 443.49 307.89C443.22 309.28 442.76 310.71 442.08 311.94C440.84 314.19 438.96 314.27 437.88 311.99C437.04 310.21 436.51 308.12 436.44 306.15C435.66 283.9 434.95 261.64 434.33 239.38C433.89 223.75 433.93 208.09 433.1 192.49C432.71 185.25 430.82 178.09 429.5 170.91C428.48 165.4 427.45 159.89 426.07 154.47C425.58 152.56 424.36 150.56 422.9 149.21C401.06 129.01 379 109.06 357.29 88.73C349.67 81.6 342.88 73.59 335.61 66.09C334.73 65.18 333.21 64.46 331.95 64.4C321 63.88 310.04 63.55 299.09 63.1C297.95 63.05 296.77 62.69 295.71 62.25C284.31 57.56 275.62 49.42 267.84 40.15C267.13 39.31 266.51 38.38 265.9 37.47C265.59 36.97 265.36 36.42 264.83 35.4Z" fill="#E7E7D7"/>
<path d="M493.529 478.76C490.169 448.15 477.199 423.11 454.099 402.79C487.149 402.79 519.689 402.79 552.759 402.79C529.719 423.04 516.719 448.08 513.349 478.67C528.249 477.31 541.989 473.25 554.989 466.56C568.049 459.84 579.329 450.82 589.279 439.26C589.279 472.36 589.279 504.9 589.279 537.95C569.039 514.95 543.979 501.91 513.429 498.6C514.839 513.61 518.889 527.4 525.629 540.41C532.349 553.39 541.309 564.61 552.819 574.49C519.769 574.49 487.229 574.49 454.139 574.49C465.399 564.7 474.449 553.51 481.189 540.53C487.949 527.51 491.969 513.69 493.479 498.61C462.959 501.9 437.899 514.9 417.539 538.03C417.539 504.94 417.539 472.41 417.539 439.31C437.849 462.41 462.889 475.4 493.529 478.76Z" fill="#E7E7D7"/>
<path d="M705.869 94.79C705.469 98.04 704.949 100.98 704.789 103.93C704.689 105.73 703.849 106.21 702.309 106.35C700.789 106.49 699.279 106.75 697.779 107.01C695.349 107.44 693.809 108.83 693.389 111.32C692.889 114.33 692.379 117.34 691.949 120.36C691.609 122.77 690.459 124.21 687.899 124.43C685.789 124.61 683.699 125.04 681.589 125.22C679.909 125.36 678.909 126.08 678.639 127.78C678.559 128.28 678.339 128.75 678.169 129.23C675.639 136.15 673.899 137.39 666.579 137.52C662.259 137.6 661.609 138.16 661.439 142.56C661.189 149.09 661.759 147.99 655.439 149.2C652.859 149.7 649.659 149.24 647.819 150.64C646.139 151.92 645.809 155.09 645.069 157.48C644.339 159.86 642.859 161.17 640.419 161.55C638.239 161.89 636.089 162.45 633.909 162.69C630.699 163.05 628.189 164.46 626.839 167.39C625.179 170.97 622.339 172.21 618.639 172.16C613.249 172.08 608.889 174.01 605.889 178.68C605.299 179.59 604.389 180.29 603.609 181.07C601.119 183.55 598.669 184.35 595.069 182.61C589.339 179.83 588.829 180.3 586.279 186.23C585.779 187.4 585.279 188.57 584.719 189.71C583.859 191.45 582.879 193.16 580.509 192.47C578.199 191.8 578.709 189.73 578.959 188.21C580.009 181.77 581.269 175.36 582.449 168.94C583.089 165.44 583.489 161.87 584.429 158.45C584.939 156.6 586.079 154.7 587.449 153.34C593.039 147.76 598.749 142.29 604.559 136.95C627.399 115.98 650.299 95.08 673.149 74.11C674.549 72.83 675.929 72.22 677.869 72.24C693.409 72.46 708.959 72.55 724.499 72.75C725.369 72.76 726.239 73.34 727.109 73.65C726.519 74.42 726.079 75.44 725.309 75.91C722.849 77.41 720.339 78.87 717.709 80.01C715.749 80.87 715.069 82.04 715.359 84.08C715.549 85.42 715.519 86.79 715.509 88.15C715.499 91.83 714.799 92.72 711.189 93.61C709.459 94.05 707.709 94.39 705.869 94.79Z" fill="#E7E7D7"/>
<path d="M341.04 137.77C337.74 137.34 334.64 136.89 331.52 136.55C329 136.27 327.26 135.06 326.34 132.68C325.97 131.73 325.34 130.84 325.18 129.87C324.54 125.99 322.17 124.63 318.48 124.86C317.57 124.92 316.64 124.6 315.71 124.5C313.16 124.22 311.81 122.75 311.38 120.27C310.92 117.6 310.41 114.93 309.86 112.27C309.06 108.36 307.96 107.29 304.04 106.63C302.2 106.32 300.34 106.16 298.03 105.87C298.03 103.36 298.09 100.85 298.01 98.3399C297.94 95.9899 297.44 93.8899 294.37 93.9799C294.13 93.9899 293.89 93.8299 293.64 93.7599C287.58 92.0799 286.98 91.1899 287.72 84.9799C288.19 80.9799 288.18 81.0099 284.64 79.3499C282.57 78.3799 280.5 77.3799 278.54 76.2099C277.54 75.6099 276.79 74.5799 275.93 73.7499C276.03 73.4799 276.12 73.2099 276.22 72.9399C277.93 72.7699 279.65 72.4599 281.36 72.4499C296.57 72.3699 311.77 72.3299 326.98 72.3599C327.87 72.3599 328.94 72.8999 329.62 73.5199C358.9 100.29 388.15 127.09 417.38 153.92C418.08 154.56 418.76 155.5 418.92 156.4C420.49 165.16 421.99 173.94 423.42 182.73C423.8 185.07 424.07 187.46 424 189.81C423.97 190.75 423.01 192.23 422.23 192.41C421.42 192.59 419.94 191.75 419.42 190.93C418.06 188.8 417.12 186.4 415.92 184.16C414.22 181.01 413.12 180.61 409.73 181.67C408.84 181.95 407.94 182.2 407.07 182.53C404.29 183.57 401.91 182.95 399.85 180.87C397.7 178.7 395.66 176.4 393.36 174.39C392.32 173.47 390.84 172.83 389.46 172.56C387.48 172.17 385.4 172.28 383.37 172.11C380.16 171.85 377.61 170.42 376.38 167.38C375.06 164.12 372.62 162.84 369.32 162.44C367.06 162.17 364.85 161.46 362.59 161.1C359.78 160.65 358.01 159.03 357.73 156.32C357.17 150.8 353.95 149.28 348.84 148.89C340.94 148.29 342.68 148.95 341.52 141.23C341.34 140.07 341.2 138.91 341.04 137.77Z" fill="#E7E7D7"/>
<path d="M560.38 390.24C561.54 390.91 562.38 391.57 563.33 391.9C564.36 392.25 565.52 392.2 566.58 392.46C568.07 392.83 570.2 391.48 570.92 393.89C571.47 395.71 569.92 398.82 568.05 399.73C566.01 400.73 564.09 400.35 562.42 398.82C562.17 398.59 561.91 398.34 561.77 398.04C560.41 395.02 557.99 394.55 554.9 394.48C552.49 394.43 549.93 393.5 547.74 392.38C544.83 390.9 544.61 389.22 546.5 386.58C547.73 384.86 549.24 383.34 550.53 381.65C551.35 380.58 552.22 379.47 552.69 378.24C554.55 373.37 552.2 370.11 547.08 370.35C542.84 370.55 538.6 370.91 534.35 371.05C529.77 371.2 527.92 369.3 527.69 364.66C527.56 362.04 527.43 359.39 526.99 356.81C526.82 355.81 525.78 354.95 525.13 354.03C524.19 354.79 522.91 355.36 522.36 356.34C520.24 360.1 521.54 368.89 524.46 372.05C526.58 374.35 529.31 375.09 532.3 375.06C535.87 375.02 539.44 374.82 543 374.88C544.08 374.9 545.92 375.34 546.06 375.91C546.33 377.04 545.98 378.62 545.3 379.62C543.45 382.36 540.61 383.82 537.39 384.24C532.28 384.92 527.22 384.53 522.32 382.77C519.6 381.8 518.07 380.1 517.77 377.02C516.97 368.9 518 360.91 519.16 352.92C519.86 348.05 520.66 343.19 521.48 338.34C521.66 337.26 521.87 336.04 522.5 335.23C523.3 334.21 524.52 332.99 525.62 332.93C526.44 332.89 527.89 334.45 528.11 335.49C528.86 339.13 529.14 342.87 529.69 346.56C530.11 349.41 530.48 352.28 531.23 355.05C531.5 356.05 532.81 356.78 533.65 357.63C534.38 356.69 535.67 355.78 535.72 354.8C535.88 351.87 535.62 348.9 535.39 345.96C535.08 342.07 534.65 338.18 534.26 334.29C533.54 327.11 530.46 324.08 523.16 324.27C518.86 324.38 514.58 325.33 510.29 325.9C509.7 325.98 509.09 326.23 508.53 326.14C507.37 325.96 506.24 325.61 505.09 325.32C505.55 323.86 505.58 321.63 506.54 321.1C509.37 319.55 512.49 318.21 515.65 317.66C520.15 316.89 524.78 316.9 529.36 316.58C530.04 316.53 530.72 316.52 531.4 316.47C537.29 316 538.57 314.65 538.72 308.71C538.79 306.16 538.81 303.61 538.83 301.06C538.84 299.14 539.65 298.51 541.58 298.98C546.14 300.1 547.69 302.21 547.73 306.89C547.76 310 547.92 313.18 548.65 316.18C549.01 317.65 550.55 319.22 551.97 319.96C559.03 323.67 566.25 327.07 573.34 330.71C574.63 331.37 575.89 332.5 576.62 333.73C577.07 334.5 576.85 336.12 576.29 336.88C575.84 337.48 574.28 337.77 573.45 337.48C570.73 336.55 568.21 334.96 565.45 334.24C561.39 333.17 557.21 332.23 553.03 331.97C548.56 331.69 546.8 333.58 545.9 337.93C545.03 342.16 544.08 346.38 543.2 350.61C543.05 351.34 542.82 352.27 543.12 352.84C543.64 353.8 544.55 354.55 545.3 355.38C546.02 354.65 547.05 354.04 547.4 353.16C547.89 351.94 547.88 350.52 548.09 349.18C548.42 347.09 548.48 344.91 549.16 342.94C550.67 338.58 555.49 336.83 559.63 338.88C563.06 340.58 563.3 346.47 560.01 349.13C559.3 349.71 558.34 349.99 557.62 350.56C556.83 351.18 556.17 351.97 555.45 352.69C556.45 353.52 557.32 354.79 558.46 355.1C561.23 355.85 565.51 353.76 567.04 351.27C567.7 350.18 568.28 349.05 568.94 347.96C570.27 345.75 572.23 344.49 574.82 344.57C577.61 344.65 580.44 344.66 583.16 345.19C587.75 346.1 592.17 351.18 589.72 357.36C587.48 363 588.24 368.57 590.81 373.89C593.29 379.02 599.35 380.1 603.59 376.25C606.35 373.74 608.89 370.98 611.65 368.46C613.08 367.15 614.73 365.8 616.89 366.78C618.98 367.73 619.91 369.72 619.78 371.8C619.44 377.46 619.05 383.14 618.21 388.75C617.72 392 615.12 393.1 611.46 392.14C605.34 390.54 600.26 386.99 595.17 383.42C590.45 380.11 585.66 376.9 580.77 373.85C579.24 372.9 577.3 372.52 575.5 372.11C574.79 371.95 573.94 372.43 573.16 372.63C573.4 373.39 573.43 374.36 573.93 374.86C576.44 377.38 578.96 379.91 581.69 382.19C585.8 385.62 590.14 388.76 594.25 392.18C595.73 393.41 597.04 394.95 598.07 396.57C599.71 399.14 599.21 402.16 596.45 403.32C591.33 405.48 585.97 407.09 580.66 408.76C579.71 409.06 578.45 408.72 577.43 408.38C574.29 407.36 573.88 406.16 575.03 403.11C575.84 400.98 576.58 398.77 576.92 396.54C577.89 390.23 574.46 386.54 568.06 386.97C565.41 387.16 562.8 387.86 560.38 390.24Z" fill="#E7E7D7"/>
<path d="M455.71 375.16C459.24 375.16 462.8 374.86 466.29 375.25C469.62 375.61 471.21 374.17 472.44 371.4C474.29 367.27 475.23 363.01 474.64 358.52C474.47 357.2 473.73 355.94 473.26 354.66C472.9 354.64 472.53 354.63 472.17 354.61C471.59 356.37 470.72 358.1 470.48 359.9C469.25 368.93 468.79 369.3 459.68 369.68C456.75 369.8 453.72 370.2 450.95 371.12C446.16 372.71 445.38 376.81 448.96 380.37C450.76 382.17 452.78 383.75 454.57 385.57C456.47 387.5 456.31 388.84 454.08 390.34C451.14 392.32 448.28 393.51 444.4 392.15C438.44 390.05 432.12 389.35 425.81 390.56C423.9 390.93 421.87 391.82 420.41 393.07C416.97 396.01 416.92 398.89 419.97 402.2C421.46 403.82 423.13 405.28 424.83 406.69C426.25 407.87 426.39 408.9 425.13 410.3C419.86 416.18 408.16 417.73 401.59 413.37C398.43 411.28 397.9 408.78 400.5 406.01C404.69 401.56 409.14 397.35 413.47 393.03C418.58 387.93 423.75 382.89 428.74 377.66C429.71 376.65 429.93 374.92 430.49 373.52C428.96 373.43 427.19 372.82 425.94 373.37C422.87 374.72 419.7 376.2 417.18 378.35C410.99 383.65 405.19 389.4 399.15 394.89C396.9 396.94 394.59 399 392.04 400.64C388.19 403.12 385.41 402.06 384.64 397.58C383.57 391.33 382.86 384.99 382.42 378.66C382.27 376.5 383.02 374.08 383.98 372.07C385.87 368.1 389.56 367.14 393.34 369.37C395.23 370.49 397.04 371.79 398.77 373.15C402.59 376.17 406.93 376.37 411.37 375.41C416.51 374.29 419.01 370.31 417.95 365.09C417.29 361.86 416.19 358.71 415.36 355.51C414.89 353.71 414.41 351.89 414.2 350.04C413.92 347.61 415.05 346.55 417.35 347.23C421.22 348.37 424.77 350.06 427.2 353.58C430.33 358.1 435.27 359.67 440.43 357.77C442.24 357.1 443.4 357.46 444.73 358.73C445.56 359.52 446.88 359.79 447.97 360.29C448.54 359.06 449.63 357.8 449.58 356.59C449.26 348.7 448.76 340.81 448.12 332.94C448.06 332.17 446.76 331.05 445.87 330.87C441.93 330.05 438.34 331.43 434.9 333.22C431.44 335.02 428.03 336.94 424.51 338.6C421.57 339.98 420.51 339.08 420.81 335.79C421.08 332.92 422.21 330.54 424.82 329.08C432.59 324.72 440.32 320.3 448.18 316.12C450.03 315.14 450.65 314.11 450.72 312.09C450.85 308.29 451.25 304.48 451.76 300.7C452 298.94 453.07 297.55 455.05 297.27C457.33 296.95 458.93 297.83 459.4 300.15C460.12 303.64 460.68 307.16 461.36 310.66C462.27 315.34 462.74 315.68 467.55 315.99C472.37 316.3 477.23 316.45 481.99 317.18C484.59 317.58 487.18 318.77 489.48 320.12C490.51 320.73 491.34 322.62 491.26 323.86C491.21 324.66 489.42 325.85 488.29 326.01C483.08 326.73 477.83 327.15 472.59 327.68C470.65 327.88 468.71 328.12 466.76 328.32C463.36 328.67 461.03 330.5 459.97 333.67C457.6 340.73 456.48 348.01 456.85 355.47C456.88 356.14 456.94 356.94 457.32 357.43C458.03 358.36 459 359.79 459.82 359.77C460.86 359.74 462.53 358.63 462.76 357.69C463.59 354.33 463.98 350.87 464.42 347.42C464.86 343.97 465.04 340.48 465.54 337.04C465.82 335.09 466.48 333.17 468.91 332.8C471.53 332.4 473.35 333.58 474.59 335.77C475 336.5 475.34 337.31 475.52 338.13C477.04 345.17 478.98 352.16 479.86 359.28C480.6 365.21 480.26 371.31 480.08 377.32C479.99 380.46 477.96 382.69 474.83 383C471.07 383.37 467.18 383.63 463.49 383.06C459.66 382.47 457.6 379.1 455.54 376.11C455.58 375.83 455.65 375.49 455.71 375.16Z" fill="#E7E7D7"/>
<path d="M0 36.06C0.94 36.06 1.78 36.06 2.61 36.06C50.2 36.06 97.79 36.07 145.39 36.03C147.12 36.03 148.49 36.38 149.68 37.67C152.28 40.47 154.89 43.27 157.61 45.95C162.08 50.35 166.63 54.66 171.16 59C171.88 59.69 172.67 60.31 173.85 61.32C172.61 61.44 171.91 61.57 171.21 61.57C128.13 61.56 85.04 61.52 41.96 61.54C28.93 61.54 17.47 57.35 7.62 48.87C3.76 45.52 0.77 41.56 0 36.06Z" fill="#E7E7D7"/>
<path d="M829.189 61.34C839.089 54.85 845.879 45.2 854.259 37.18C855.039 36.44 856.499 36.11 857.649 36.11C902.929 36.06 948.209 36.07 993.489 36.07C996.449 36.07 999.409 36.07 1002.45 36.07C1003.08 38.95 1002.3 41.44 1000.58 43.31C997.729 46.42 994.799 49.58 991.399 52.01C983.399 57.71 974.669 61.44 964.479 61.38C946.559 61.29 928.629 61.63 910.709 61.72C884.459 61.85 858.209 61.91 831.959 62.01C831.139 62.01 830.319 62.01 829.489 62.01C829.389 61.78 829.289 61.56 829.189 61.34Z" fill="#E7E7D7"/>
<path d="M803.77 91.3699C805.33 88.2899 806.869 85.1999 808.469 82.1299C809.759 79.6499 811.229 77.2399 812.419 74.7099C813.189 73.0799 814.229 72.6399 815.969 72.6399C850.809 72.5799 885.66 72.3899 920.5 72.3799C942 72.3699 963.5 72.6099 985 72.7599C986.39 72.7699 987.78 72.9699 989.77 73.1299C985.93 78.6899 981.75 83.0199 976.39 85.8899C971.92 88.2799 967.09 89.9799 962.39 91.9299C961.71 92.2099 960.9 92.2599 960.14 92.2599C911.78 92.3399 863.43 92.4099 815.07 92.4799C811.45 92.4899 807.82 92.4799 804.2 92.4799C804.06 92.1199 803.91 91.7399 803.77 91.3699Z" fill="#E7E7D7"/>
<path d="M973.041 99.77C971.091 104.85 968.041 108.55 963.621 110.57C957.161 113.53 950.431 115.9 943.791 118.47C943.191 118.7 942.451 118.64 941.781 118.64C893.771 118.6 845.761 118.54 797.751 118.49C795.981 118.49 794.201 118.49 792.221 118.49C792.261 117.76 792.181 117.33 792.311 117C794.481 111.58 796.591 106.13 798.951 100.79C799.331 99.92 800.831 99.03 801.811 99.03C845.401 98.99 888.991 99.04 932.581 99.11C943.631 99.13 954.671 99.25 965.721 99.37C968.011 99.4 970.291 99.62 973.041 99.77Z" fill="#E7E7D7"/>
<path d="M51.4494 125.78C52.3194 125.78 53.2294 125.78 54.1394 125.78C106.069 125.78 157.999 125.79 209.939 125.74C211.759 125.74 212.949 126.21 213.879 127.78C215.389 130.33 216.949 132.88 218.699 135.27C220.389 137.57 222.389 139.65 224.159 141.89C224.949 142.88 225.529 144.04 226.199 145.13C225.029 145.48 223.869 146.12 222.699 146.15C212.839 146.38 202.989 146.65 193.129 146.64C157.769 146.58 122.419 146.39 87.0594 146.3C74.4094 146.27 64.1094 140.28 54.1894 133.43C51.3294 131.43 50.9594 129.62 51.4494 125.78Z" fill="#E7E7D7"/>
<path d="M199.879 91.93C193.159 91.93 186.969 91.94 180.789 91.93C153.349 91.88 125.899 91.87 98.4592 91.76C81.0392 91.69 63.6292 91.38 46.2092 91.35C35.5092 91.33 26.9792 86.51 19.2892 79.72C17.1792 77.86 15.3892 75.63 12.9492 73.03C14.7792 72.91 15.7592 72.8 16.7392 72.8C57.0092 72.71 97.2792 72.61 137.559 72.57C154.209 72.55 170.869 72.68 187.519 72.65C189.419 72.65 190.359 73.25 191.179 74.93C193.889 80.48 196.789 85.94 199.879 91.93Z" fill="#E7E7D7"/>
<path d="M30.4492 99.81C33.5192 99.62 36.0392 99.33 38.5592 99.33C87.3292 99.31 136.109 99.32 184.879 99.32C190.399 99.32 195.929 99.29 201.449 99.41C202.309 99.43 203.499 99.89 203.959 100.54C207.719 105.91 209.909 111.92 211.019 118.67C209.849 118.67 208.859 118.67 207.859 118.67C161.209 118.65 114.559 118.57 67.9092 118.65C56.9892 118.67 47.3192 114.92 38.1592 109.58C35.7592 108.18 33.8992 105.76 31.9992 103.63C31.2392 102.78 31.0692 101.41 30.4492 99.81Z" fill="#E7E7D7"/>
<path d="M952.45 126.5C951.88 130.08 950.88 133.17 947.72 134.74C940.45 138.35 933.27 142.29 925.67 145.05C921.28 146.64 916.14 146.57 911.34 146.6C880.59 146.81 849.84 146.85 819.09 146.94C806.18 146.98 793.27 146.99 780.36 147.01C779.35 147.01 778.34 147.01 777.35 147.01C776.69 144.99 777.07 143.38 778.66 142.34C781.61 140.4 783.39 137.59 785.05 134.58C789.49 126.48 789.54 126.5 798.67 126.5C848.79 126.5 898.9 126.5 949.02 126.5C950.09 126.5 951.17 126.5 952.45 126.5Z" fill="#E7E7D7"/>
<path d="M127.679 182.4C129.359 182.25 131.029 181.96 132.709 181.96C170.169 181.82 207.619 181.7 245.079 181.6C245.889 181.6 246.809 181.74 247.509 182.13C257.299 187.6 264.109 195.71 268.439 205.97C269.419 208.3 268.869 209.38 266.229 209.47C259.279 209.71 252.309 209.98 245.359 209.73C227.969 209.1 210.559 208.56 193.199 207.31C171.499 205.75 151.529 198.36 132.769 187.56C130.789 186.42 129.109 184.75 127.279 183.33C127.419 183.02 127.549 182.71 127.679 182.4Z" fill="#E7E7D7"/>
<path d="M614.92 483.51C616.99 482.25 618.16 481.45 619.41 480.79C623.55 478.59 624.14 473.25 620.39 470.36C618.59 468.98 616.44 468.06 614.49 466.86C612.91 465.89 611.23 464.98 609.87 463.74C608.08 462.11 608.51 460.19 610.81 459.44C612.4 458.92 614.13 458.82 615.81 458.61C620.44 458.03 622.96 455.79 623.2 451.98C623.48 447.59 620.72 443.47 616.57 442.61C612.42 441.75 608.2 441.22 604 440.62C599.73 440.01 597.54 437.13 596.22 433.43C595.28 430.77 596.08 429.15 598.77 428.25C600.93 427.53 603.2 427.13 605.44 426.67C609.84 425.76 611.4 422.4 608.96 418.56C607.33 415.99 605.37 413.61 603.53 411.18C602.09 409.28 602.32 407.53 603.97 405.96C609.85 400.39 616.67 397.53 624.87 399.16C629.49 400.08 631.01 402.21 630.59 406.9C630.46 408.42 630.11 409.92 629.88 411.42C629.74 412.34 629.54 413.27 629.52 414.19C629.48 417.23 631 420.19 632.72 420.59C636.32 421.42 639.62 419.76 641.38 416.76C642.85 414.24 644.51 411.7 646.59 409.7C649.35 407.04 652.36 408.06 653.66 411.74C654.79 414.95 654.5 418.11 652.79 421.07C649.99 425.92 647.19 430.77 644.3 435.58C642.55 438.49 642.07 441.52 643.63 444.53C644.13 445.49 645.64 446.58 646.62 446.51C648.56 446.39 650.51 445.63 652.36 444.9C653.6 444.41 654.64 443.41 655.86 442.84C657.85 441.9 659.98 441.39 661.83 443.06C663.69 444.74 664.53 447.08 663.42 449.3C661.81 452.52 659.75 455.54 657.7 458.52C655.78 461.31 653.45 463.82 651.65 466.68C650.65 468.27 650.1 470.28 649.81 472.17C649.29 475.54 651.06 477.54 654.48 477.67C657.71 477.79 660.94 477.68 664.17 477.83C665.18 477.88 666.97 478.39 667.01 478.81C667.11 479.92 666.8 481.53 666.02 482.18C662.12 485.43 658.16 488.64 653.95 491.45C651.37 493.17 649.09 492.66 647.22 490.13C645.5 487.79 643.76 485.18 643.06 482.43C640.77 473.39 639.08 464.2 636.88 455.13C635.55 449.62 633.72 444.22 632.09 438.78C631.95 438.3 631.72 437.73 631.35 437.47C629.84 436.4 628.26 435.44 626.71 434.43C626.51 436.02 625.94 437.67 626.17 439.2C628.31 453.3 630.62 467.38 632.81 481.47C633.11 483.42 634.65 485.66 632.25 487.31C629.22 489.39 625.87 491.07 622.28 489.16C619.81 487.86 617.77 485.75 614.92 483.51Z" fill="#E7E7D7"/>
<path d="M733.609 209.28C737.639 197.57 744.589 189.08 754.479 182.95C755.079 182.58 755.909 182.42 756.629 182.42C796.059 182.4 835.489 182.4 874.919 182.41C875.159 182.41 875.409 182.47 876.439 182.62C874.079 184.6 872.249 186.39 870.169 187.82C861.469 193.79 851.719 197.46 841.809 200.83C825.799 206.27 809.229 208.27 792.459 208.83C776.239 209.37 760.009 209.6 743.789 209.86C740.529 209.91 737.249 209.5 733.609 209.28Z" fill="#E7E7D7"/>
<path d="M83.4805 154.8C86.5405 154.64 89.1205 154.41 91.7105 154.39C115.58 154.25 139.46 154.11 163.34 154.05C183.73 153.99 204.13 154.06 224.52 154C226.41 153.99 227.62 154.57 228.82 156.02C231.86 159.68 235.12 163.15 238.27 166.71C239.17 167.73 240.12 168.73 240.83 169.87C241.37 170.75 241.56 171.84 241.91 172.84C240.96 173.13 240.02 173.65 239.06 173.68C231.16 173.91 223.26 174.16 215.36 174.18C187.49 174.24 159.62 174.27 131.75 174.16C123.37 174.13 114.67 174.86 107.07 170.55C99.3505 166.17 92.0705 161.01 84.6105 156.17C84.2905 155.95 84.1005 155.56 83.4805 154.8Z" fill="#E7E7D7"/>
<path d="M397.071 435.27C398.761 435.27 400.481 435.09 402.141 435.32C404.321 435.62 405.101 437.93 403.311 439.15C401.131 440.64 398.581 441.65 396.091 442.63C392.571 444.02 388.901 445.04 385.401 446.49C382.431 447.72 381.031 450.21 381.351 453.45C381.681 456.81 383.261 459.37 386.451 460.8C387.911 461.46 389.421 462.07 390.781 462.91C392.401 463.9 392.651 465.44 391.281 466.74C389.761 468.18 388.001 469.38 386.281 470.6C384.001 472.22 381.501 473.56 379.391 475.36C376.081 478.17 376.061 479.67 378.651 483.11C379.471 484.19 380.511 485.19 381.011 486.41C381.571 487.76 381.881 489.32 381.841 490.78C381.781 492.73 380.451 494.13 378.501 493.82C375.291 493.3 372.081 492.54 369.051 491.39C368.161 491.05 367.451 489.06 367.431 487.81C367.301 479.07 369.161 470.62 371.351 462.22C372.361 458.36 373.591 454.55 374.301 450.64C374.681 448.55 374.351 446.26 373.951 444.14C373.801 443.33 372.581 442.2 371.801 442.17C370.991 442.13 369.691 443.07 369.371 443.88C367.921 447.49 366.631 451.18 365.481 454.91C362.201 465.53 359.031 476.17 355.791 486.81C355.541 487.62 355.201 488.4 354.861 489.18C352.431 494.78 349.801 496.12 344.241 493.67C341.301 492.37 338.431 490.38 336.261 488.03C333.071 484.57 334.621 481.06 339.231 480.26C340.311 480.07 341.411 479.87 342.451 479.52C346.361 478.23 348.931 475.2 349.161 471.69C349.421 467.71 347.521 464.03 343.541 462.59C338.991 460.94 337.431 457.59 336.791 453.33C336.341 450.32 336.641 449.69 339.761 449.96C343.871 450.31 347.981 451.03 352.011 451.95C355.851 452.83 358.991 450.94 358.811 446.96C358.711 444.7 357.881 442.29 356.781 440.28C355.071 437.17 352.801 434.37 350.871 431.38C349.721 429.6 348.611 427.77 347.771 425.84C346.471 422.89 346.971 419 348.881 417.79C351.421 416.18 354.101 416.69 356.601 418.11C357.781 418.78 358.851 419.62 359.961 420.4C366.131 424.74 370.901 422.98 372.861 415.62C373.431 413.49 373.921 411.34 374.481 409.21C375.081 406.94 376.631 406.15 378.741 406.93C384.621 409.11 389.431 412.77 393.181 417.81C394.961 420.21 393.411 422.06 391.841 423.61C389.371 426.04 389.031 428.92 389.511 432.06C389.961 435 390.791 435.65 393.741 435.54C394.841 435.5 395.951 435.41 397.051 435.35C397.071 435.31 397.071 435.29 397.071 435.27Z" fill="#E7E7D7"/>
<path d="M760.699 174.28C761.559 172.37 761.929 170.65 762.929 169.46C766.869 164.78 770.959 160.24 775.119 155.75C775.679 155.14 776.919 154.92 777.839 154.92C808.339 154.88 838.849 154.87 869.349 154.91C885.149 154.93 900.959 155.04 916.759 155.11C917.659 155.11 918.549 155.22 919.449 155.27C919.559 155.53 919.659 155.79 919.769 156.05C913.629 160.09 907.569 164.25 901.339 168.14C894.719 172.28 887.509 174.19 879.589 174.19C840.849 174.18 802.099 174.36 763.359 174.47C762.769 174.48 762.189 174.39 760.699 174.28Z" fill="#E7E7D7"/>
<path d="M622.37 590.04C619.9 589.85 617.68 589.81 615.5 589.48C610.45 588.72 607.75 584.89 608.99 579.92C609.55 577.66 610.67 575.5 611.73 573.39C617.66 561.66 623.65 549.97 629.61 538.25C629.95 537.57 630.46 536.77 630.35 536.12C630.17 535.06 629.77 533.79 629.01 533.15C628.52 532.74 626.88 532.98 626.34 533.51C624.98 534.87 623.84 536.49 622.82 538.13C616.46 548.37 610.2 558.66 603.79 568.86C603.24 569.73 601.86 570.46 600.81 570.55C598.29 570.78 595.7 570.83 593.21 570.46C591.84 570.25 590 569.34 589.46 568.23C587.78 564.76 586.55 561.06 585.31 557.39C584.86 556.07 585.79 555.19 587.11 555.31C588.51 555.44 589.96 555.73 591.23 556.32C592.52 556.91 593.61 557.93 594.77 558.78C597.93 561.12 601.66 561.4 604.77 559.51C607.71 557.72 609.27 553.9 608.57 550.18C607.98 547.03 606.22 544.66 603.92 542.49C602.36 541.01 601 539.21 599.97 537.32C599.55 536.56 599.89 534.82 600.54 534.2C601.2 533.57 602.71 533.5 603.74 533.7C604.75 533.9 605.75 534.64 606.53 535.38C608.74 537.44 611.31 538.06 614.26 537.93C619.3 537.71 622.43 533.61 620.66 528.84C619.77 526.43 618.14 524.26 616.65 522.12C615.3 520.17 613.55 518.5 612.23 516.54C611.25 515.09 610.42 513.43 609.93 511.75C608.81 507.86 610.54 506.18 614.34 507.32C616.61 508 618.8 508.96 621.08 509.63C624.33 510.59 625.8 509.91 627.16 506.8C628.11 504.63 628.87 502.37 629.77 500.18C631.03 497.1 633.35 495.54 636.69 495.55C638.22 495.55 639.76 495.46 641.28 495.58C649.1 496.19 651.38 502.07 648.11 508.18C646.63 510.94 644.79 513.51 643.24 516.24C640.48 521.12 642.13 524.03 647.73 523.65C650.5 523.46 653.18 522.04 655.94 521.34C657.74 520.88 659.89 519.99 661.37 520.58C663.59 521.46 662.94 524.1 662.74 526.07C662.26 530.71 659.43 533.33 654.78 533.85C650.65 534.31 646.46 534.53 642.44 535.48C636.96 536.77 634.22 540.62 634 546.19C633.88 549.36 635.54 551.22 638.69 551.17C641.66 551.12 644.62 550.8 647.59 550.71C651.05 550.6 652.68 551.99 653.38 555.45C654.15 559.24 653.06 562.17 649.77 562.75C646 563.42 642.05 563.24 638.19 563.16C634.37 563.08 630.57 562.65 626.75 562.41C623.6 562.21 621.09 563.58 619.99 566.41C618.97 569.03 618.28 571.94 618.23 574.74C618.17 578.44 620.37 580.69 624.18 581.69C626.55 582.31 629.05 582.51 631.38 583.24C632.43 583.57 634.09 584.92 633.96 585.47C633.69 586.69 632.53 587.75 631.59 588.74C631.23 589.12 630.51 589.24 629.93 589.31C627.36 589.6 624.74 589.82 622.37 590.04Z" fill="#E7E7D7"/>
<path d="M726.07 62.61C731.41 57.06 736.88 51.63 742.03 45.89C744.21 43.46 745.62 40.36 747.54 37.68C748.07 36.94 749.15 36.12 749.98 36.12C778.86 36.19 807.75 36.35 836.63 36.52C837.62 36.53 838.61 36.71 840.21 36.88C839.42 38.31 838.97 39.46 838.24 40.39C832.13 48.14 824.95 54.69 816.34 59.58C811.42 62.37 805.91 62.5 800.49 62.53C776.11 62.66 751.72 62.66 727.34 62.7C726.77 62.69 726.21 62.62 726.07 62.61Z" fill="#E7E7D7"/>
<path d="M277.809 62.08C275.809 62.24 274.489 62.44 273.159 62.44C249.119 62.49 225.079 62.48 201.039 62.57C193.389 62.6 186.569 60.05 180.799 55.38C175.489 51.07 170.769 46.02 165.929 41.16C164.659 39.89 163.909 38.11 162.609 36.06C163.979 36.06 164.769 36.06 165.569 36.06C194.449 36.06 223.339 36.07 252.219 36.03C253.899 36.03 254.949 36.38 255.839 37.99C260.499 46.45 267.109 53.24 274.529 59.3C275.479 60.07 276.399 60.88 277.809 62.08Z" fill="#E7E7D7"/>
<path d="M391.81 512.32C394.41 514.74 394.86 516.65 393 519.4C391.25 521.99 389.1 524.31 387.09 526.72C382.67 532.03 382.69 540.2 387.16 545.47C390.62 549.55 393.82 549.63 397.39 545.67C398.64 544.28 399.79 542.81 400.98 541.37C401.86 540.3 402.69 540.3 403.77 541.21C406.4 543.44 407.95 545.72 406.69 549.55C405.43 553.39 404.74 557.47 404.29 561.5C403.82 565.75 405.34 567.35 409.54 568.07C411.91 568.47 414.28 568.84 416.65 569.23C416.69 569.53 416.73 569.83 416.77 570.13C415.67 570.61 414.61 571.2 413.48 571.56C410.18 572.59 406.81 573.43 403.54 574.56C402.21 575.02 401.31 575.01 400.47 573.88C397.13 569.4 393.47 565.13 390.5 560.41C386.61 554.24 383.27 547.73 379.68 541.38C379.18 540.49 378.65 539.62 378.05 538.8C376.88 537.19 375.05 536.77 373.55 537.62C372.84 538.02 372.45 540.12 372.81 541.12C374.35 545.33 375.9 549.59 378.05 553.51C382.41 561.47 387.15 569.23 391.73 577.07C392.16 577.8 392.58 578.54 392.98 579.29C396.13 585.22 393.97 591.26 387.46 593.23C383.62 594.39 379.47 594.57 375.43 594.95C374.59 595.03 373.65 594.04 372.76 593.54C373.36 592.68 373.77 591.51 374.59 591.04C375.72 590.4 377.15 590.2 378.47 589.98C386.84 588.57 389.02 583.36 384.21 576.35C381.92 573.01 378.65 571.83 374.84 571.57C370.35 571.26 365.86 570.92 361.38 570.55C360.63 570.49 359.77 570.42 359.18 570.03C358.18 569.38 356.69 568.53 356.62 567.66C356.51 566.46 357.2 564.75 358.14 564C360.03 562.48 362.35 561.48 364.45 560.2C367.33 558.44 369.59 556.33 369.16 552.47C368.73 548.51 366.83 545.62 363.03 544.54C358.72 543.31 354.3 542.47 349.89 541.64C344.47 540.62 342.69 538.84 342.17 533.32C342.06 532.17 342.15 530.99 342.15 529.54C344.92 529.68 347.44 529.94 349.96 529.9C352.4 529.86 354.93 529.84 357.27 529.22C361.84 528 363.69 523.39 361.23 519.35C359.92 517.21 358.11 515.32 356.31 513.55C353.55 510.84 353.59 507.69 354.41 504.33C354.53 503.86 354.87 503.42 355.17 503.02C357.34 500.06 366.75 498.93 369.53 501.35C371.35 502.93 371.95 504.99 371.47 507.35C371.13 509.01 370.65 510.65 370.36 512.32C369.42 517.82 373.57 522.11 379.04 521.33C380.05 521.19 381.04 520.92 382.05 520.79C386.07 520.24 389 518.3 390.53 514.43C390.8 513.68 391.35 513.04 391.81 512.32Z" fill="#E7E7D7"/>
<path d="M478.789 284.99C478.789 277.77 478.859 270.55 478.739 263.33C478.709 261.57 479.369 260.8 480.919 260.63C482.939 260.4 484.979 260.17 487.009 260.12C495.759 259.9 504.499 259.73 513.249 259.59C514.429 259.57 515.629 259.73 516.789 259.95C519.699 260.49 520.599 261.62 520.599 264.55C520.599 277.89 520.549 291.23 520.649 304.57C520.659 306.53 520.069 307.65 518.399 308.61C512.879 311.77 507.439 315.07 501.969 318.32C500.289 319.32 498.629 319.33 496.899 318.4C491.839 315.66 486.739 312.97 481.689 310.21C480.249 309.42 479.699 308.17 479.729 306.42C479.829 299.29 479.769 292.15 479.769 285.02C479.449 284.99 479.119 284.99 478.789 284.99Z" fill="#E7E7D7"/>
<path d="M476.359 616.24C473.819 615.71 471.199 615.43 468.759 614.6C457.519 610.81 446.319 606.87 435.109 602.99C433.829 602.55 432.549 602.02 431.229 601.82C430.619 601.73 429.749 602.17 429.309 602.65C429.109 602.87 429.519 603.97 429.939 604.35C431.329 605.58 432.809 606.74 434.349 607.79C444.239 614.57 455.309 618.9 466.449 623.07C468.989 624.02 471.609 624.86 473.959 626.18C475.079 626.81 476.229 628.38 476.309 629.59C476.379 630.67 475.189 632.05 474.219 632.93C473.319 633.75 471.969 634.08 470.829 634.63C467.259 636.36 463.609 637.93 460.169 639.89C457.189 641.58 454.219 642.22 450.899 641.47C449.199 641.09 448.279 640.06 448.579 638.41C449.019 636 449.639 633.62 450.349 631.28C452.569 624.06 448.189 618.91 440.869 620.9C435.199 622.44 429.809 625.09 424.359 627.41C421.889 628.46 419.629 629.15 417.149 627.52C414.029 625.46 413.249 622.41 415.279 619.25C416.699 617.04 418.379 614.98 419.669 612.7C421.649 609.18 421.179 607.51 417.519 605.8C414.629 604.44 411.579 603.34 408.499 602.49C404.299 601.33 401.099 597.69 401.189 593.34C401.239 591.16 401.469 588.92 402.059 586.83C403.009 583.45 405.449 581.49 408.899 580.71C412.489 579.9 415.219 581.12 417.339 584C418.089 585.03 418.719 586.22 419.669 587.02C420.839 588 422.219 589.13 423.639 589.36C431.539 590.67 433.349 589.48 436.309 581.65C437.059 579.67 437.489 577.51 440.429 577.65C442.239 577.73 443.199 578.27 443.649 580.12C445.109 586.05 446.659 591.96 448.299 597.84C449.399 601.79 452.279 603.79 456.199 604.48C461.009 605.33 463.919 603.24 464.509 598.41C464.739 596.56 464.689 594.67 464.979 592.83C465.129 591.91 465.549 590.75 466.239 590.29C466.659 590.01 467.999 590.64 468.629 591.21C470.009 592.45 471.349 593.8 472.419 595.3C475.619 599.77 477.599 610.27 476.359 616.24Z" fill="#E7E7D7"/>
<path d="M539.489 589.38C539.979 591.49 540.669 593.57 540.929 595.71C541.319 598.91 542.729 601.23 545.889 602.09C549.379 603.04 552.829 603.13 555.529 600.09C557.939 597.37 558.819 594.02 559.279 590.52C559.639 587.83 559.919 585.12 560.279 582.43C560.379 581.68 560.589 580.92 560.899 580.23C561.699 578.43 563.709 577.54 565.329 578.3C567.109 579.14 566.599 580.7 566.299 582.09C565.639 585.15 564.759 588.17 564.219 591.24C563.609 594.72 565.439 597.47 568.929 598.18C576.309 599.68 581.169 597.76 583.929 589.46C584.619 587.37 585.119 585.22 585.769 583.11C586.489 580.76 588.239 579.8 590.589 579.7C599.809 579.31 606.089 587.74 602.889 596.29C602.239 598.03 601.349 599.69 600.439 601.31C599.049 603.8 596.849 605.14 593.999 605.23C591.029 605.32 588.059 605.31 585.079 605.31C582.639 605.31 580.159 605.31 579.019 608.02C577.759 611.03 577.149 614.34 579.389 616.95C581.069 618.9 583.609 620.11 585.839 621.55C586.609 622.05 587.629 622.14 588.419 622.61C589.439 623.23 591.219 624.23 591.119 624.76C590.809 626.3 590.079 628.14 588.889 629.04C585.939 631.27 582.519 631.37 579.309 629.45C572.209 625.21 564.439 623.92 556.339 623.96C555.659 623.96 554.979 624 554.309 624.1C549.629 624.79 548.299 626.61 549.329 631.22C549.919 633.87 550.809 636.45 551.429 639.09C552.129 642.03 551.169 643.31 548.129 643.31C546.729 643.31 545.209 643.03 543.949 642.44C538.889 640.06 534.489 636.74 530.919 632.43C528.299 629.27 528.709 627.62 532.499 626.14C541.509 622.62 550.579 619.27 559.609 615.8C565.439 613.56 571.019 610.85 575.349 606.22C576.379 605.11 577.669 602.95 577.229 602.02C576.279 599.99 574.069 601.1 572.479 601.7C564.309 604.76 556.269 608.23 547.989 610.96C541.969 612.94 535.629 613.93 529.469 615.51C527.469 616.02 527.089 615.23 527.029 613.55C526.899 609.71 527.679 606.21 529.929 602.96C532.719 598.93 535.219 594.7 537.849 590.57C538.109 590.16 538.419 589.77 538.699 589.36C538.969 589.39 539.229 589.38 539.489 589.38Z" fill="#E7E7D7"/>
<path d="M379.25 265.52C374.66 265.78 371.15 263.86 367.98 261.13C366.22 259.62 366.02 257.81 367.29 255.92C368.04 254.8 368.83 253.63 369.83 252.76C378.69 245.09 384.11 235.15 388.18 224.43C390.79 217.55 392.8 210.45 395.16 203.47C396.08 200.75 397.13 198.07 398.25 195.42C398.67 194.43 399.41 193.54 400.1 192.69C402.79 189.38 406.15 188.01 408.9 189.04C411.68 190.08 413.69 193.69 413.32 197.76C412.83 203.16 412.12 208.55 411.36 213.92C409.35 228.2 404.18 241.42 397.7 254.18C393.83 261.79 387.61 265.65 379.25 265.52Z" fill="#E7E7D7"/>
<path d="M589.699 199.04C589.939 197.2 589.999 195.31 590.459 193.52C591.639 188.92 595.879 187.34 599.779 190.11C603.789 192.96 606.789 196.9 607.559 201.68C608.739 208.99 611.469 215.7 614.159 222.46C615.659 226.24 617.429 229.91 619.089 233.62C622.029 240.2 626.029 246.04 631.219 251.06C632.679 252.47 634.029 254.01 635.319 255.58C637.519 258.24 637.419 259.13 634.889 261.55C628.639 267.54 616.619 267.35 610.399 260.61C607.359 257.31 604.989 253.23 602.969 249.17C595.649 234.5 590.099 212.68 589.699 199.04Z" fill="#E7E7D7"/>
<path d="M351.83 166.55C350.72 169.55 349.9 173.27 348.07 176.41C340.39 189.56 331.53 201.92 321.52 213.41C317.05 218.55 311.33 221.75 304.49 222.84C300.05 223.55 296.68 221.79 293.92 218.58C287.65 211.31 288.02 210.71 295.21 206.52C307.41 199.41 315.81 188.75 324.47 178.16C329.41 172.11 334.58 166.24 339.85 160.48C341.28 158.91 343.32 157.76 345.28 156.85C347.54 155.8 349.1 156.55 349.9 158.89C350.65 161.12 351.07 163.46 351.83 166.55Z" fill="#E7E7D7"/>
<path d="M699.33 223.19C693.63 222.57 687.86 220.01 683.44 215.34C678.73 210.37 674.39 204.98 670.35 199.44C665 192.11 660.05 184.48 655.02 176.91C651.66 171.85 651.39 166.21 652.66 160.49C653.53 156.55 655.94 155.49 659.17 157.84C662.3 160.12 665.31 162.72 667.85 165.64C674.41 173.21 680.67 181.04 687.08 188.75C692.43 195.19 698.28 201.04 705.63 205.25C707.96 206.59 710.05 208.41 712.04 210.23C712.72 210.85 713.26 212.24 713.06 213.1C711.94 217.9 705 223.18 699.33 223.19Z" fill="#E7E7D7"/>
<path d="M663.79 246.06C659.38 252.68 653.04 252.84 645.02 250.23C641.67 249.14 638.32 246.58 636.08 243.79C623.79 228.53 614.64 211.66 611.56 192.01C611.16 189.44 611.24 186.75 611.38 184.14C611.53 181.36 612.82 180.26 615.61 180.04C619.76 179.72 623.19 180.97 625.24 184.81C627.07 188.25 628.97 191.68 630.46 195.27C637.57 212.45 647.09 228.07 660 241.55C661.34 242.94 662.5 244.51 663.79 246.06Z" fill="#E7E7D7"/>
<path d="M391.52 187.93C391.58 196.23 389.71 204.16 386.08 211.54C382 219.83 377.82 228.1 373.01 235.97C370.41 240.22 366.74 244.01 362.94 247.3C358.46 251.18 352.82 252.29 346.9 251.31C346.07 251.17 345.23 250.98 344.44 250.68C339.81 248.89 339.16 246.77 342.09 242.83C343.45 240.99 344.87 239.16 346.47 237.53C356.94 226.88 363.86 213.98 370.08 200.61C372.55 195.31 375.03 190.01 377.69 184.81C379.55 181.18 382.84 179.83 386.82 180C390.28 180.14 391.34 181.16 391.5 184.63C391.56 185.72 391.52 186.83 391.52 187.93Z" fill="#E7E7D7"/>
<path d="M673.09 237.78C669.02 237.64 665.65 236.57 663.26 233.59C659.76 229.23 656.11 224.93 653.1 220.24C648.71 213.39 644.79 206.24 640.77 199.16C636.99 192.51 634.92 185.27 634.06 177.7C633.79 175.38 633.39 172.64 635.78 171.21C638.22 169.74 640.81 170.81 642.94 172.29C644.51 173.38 646 174.8 647.07 176.37C650.49 181.42 654.16 186.38 656.9 191.79C661.17 200.26 666.79 207.55 673.48 214.17C677.76 218.41 681.85 222.84 685.93 227.28C687.87 229.39 687.78 230.68 685.72 232.75C682.15 236.32 677.61 237.5 673.09 237.78Z" fill="#E7E7D7"/>
<path d="M369.76 175.92C368 182.26 367.119 189.03 364.299 194.87C358.069 207.77 351.11 220.34 341.63 231.28C335.44 238.42 325.979 239.48 318.209 233.86C316.059 232.3 315.489 230.37 316.929 228.14C318.209 226.16 319.64 224.19 321.35 222.58C333.54 211.15 343.429 198.03 351.149 183.2C352.879 179.88 355.599 177.02 358.149 174.2C359.349 172.88 361.099 171.87 362.799 171.22C367.029 169.61 369.089 171.2 369.029 175.72C369.279 175.79 369.52 175.85 369.76 175.92Z" fill="#E7E7D7"/>
<path d="M720.93 203.5C716.88 203.61 713.27 202.1 710.29 199.44C704.72 194.46 699.1 189.51 693.96 184.1C687.82 177.64 682.04 170.83 676.34 163.98C672.7 159.6 670.44 154.5 670.13 148.65C669.95 145.35 671.42 143.72 674.64 144.5C676.57 144.96 678.56 145.83 680.1 147.04C682.76 149.13 685.44 151.36 687.49 154.01C695.53 164.4 705.94 172 716.61 179.32C721.65 182.78 726.76 186.14 731.93 189.42C733.51 190.42 733.89 191.37 732.81 192.88C730.83 195.63 728.91 198.43 726.87 201.12C725.41 203.01 723.38 203.76 720.93 203.5Z" fill="#E7E7D7"/>
<path d="M503.251 649.94C498.161 649.94 493.061 650.11 487.971 649.88C484.011 649.7 483.591 648.81 484.011 644.88C485.511 630.61 486.841 616.32 488.431 602.07C489.241 594.81 487.941 596.14 494.991 596.04C500.931 595.95 506.881 596.27 512.821 596.27C514.961 596.27 515.821 596.79 516.081 599.18C517.541 612.77 519.261 626.33 520.851 639.9C521.131 642.26 521.181 644.64 521.431 647.01C521.661 649.22 520.661 650.16 518.531 650.16C513.441 650.15 508.341 650.16 503.251 650.16C503.251 650.07 503.251 650.01 503.251 649.94ZM498.861 633.02C499.231 635.9 499.511 639.55 500.251 643.1C500.501 644.28 501.951 645.21 502.851 646.25C503.741 645.23 505.141 644.34 505.451 643.16C507.221 636.49 507.281 629.73 505.441 623.05C505.141 621.97 503.991 621.13 503.231 620.17C502.261 621.02 501.171 621.77 500.371 622.76C499.881 623.37 499.721 624.32 499.621 625.15C499.331 627.51 499.151 629.87 498.861 633.02ZM518.251 634.19C517.621 630.16 517.231 626.7 516.471 623.33C516.211 622.19 515.031 621.26 514.271 620.24C513.381 621.15 512.041 621.91 511.671 623C509.301 629.95 509.271 636.97 511.741 643.91C512.081 644.87 513.231 645.55 514.001 646.36C514.741 645.6 515.921 644.95 516.151 644.06C517.051 640.67 517.641 637.18 518.251 634.19ZM487.921 633.26C487.711 633.28 487.501 633.31 487.291 633.33C487.821 636.9 488.241 640.49 488.971 644.02C489.151 644.91 490.331 645.59 491.051 646.37C491.851 645.59 493.051 644.94 493.391 643.99C495.891 636.99 495.881 629.88 493.631 622.83C493.311 621.83 492.191 621.08 491.441 620.22C490.501 621.12 489.241 621.86 488.711 622.96C488.111 624.2 488.041 625.74 487.961 627.17C487.831 629.19 487.921 631.23 487.921 633.26Z" fill="#E7E7D7"/>
<path d="M281.35 204.11C279.58 202.97 277.5 202.12 276.1 200.63C274.15 198.55 272.58 196.06 271.08 193.61C269.28 190.68 269.51 190.43 272.44 188.44C280.93 182.67 289.44 176.91 297.82 170.98C304.51 166.25 310.27 160.55 315.4 154.1C317.94 150.91 321.4 148.4 324.63 145.81C325.75 144.91 327.38 144.39 328.84 144.22C332.38 143.81 333.62 145.29 333.2 148.83C332.61 153.75 330.9 158.29 327.9 162.16C323.69 167.59 319.43 173.02 314.68 177.97C307.86 185.07 300.69 191.84 293.46 198.51C290.26 201.47 286.42 203.59 281.76 203.44C281.62 203.66 281.49 203.88 281.35 204.11Z" fill="#E7E7D7"/>
<path d="M511.719 378.8C504.169 378.8 496.879 378.86 489.589 378.71C488.879 378.7 487.659 377.53 487.569 376.78C485.789 362.21 484.139 347.63 482.449 332.92C482.829 332.85 483.309 332.67 483.789 332.67C493.389 332.71 502.979 332.74 512.579 332.86C515.959 332.9 516.059 333.16 515.749 336.39C514.449 350.08 513.169 363.77 511.889 377.46C511.849 377.88 511.779 378.3 511.719 378.8ZM494.289 365.69C493.859 362.85 493.559 359.98 492.919 357.18C492.759 356.48 491.589 355.86 490.759 355.54C490.459 355.43 489.309 356.37 489.349 356.76C489.799 361.29 490.369 365.82 491.029 370.33C491.099 370.83 491.879 371.22 492.329 371.66C492.769 371.19 493.459 370.77 493.599 370.23C493.949 368.77 494.069 367.26 494.289 365.69ZM505.519 364.36C505.519 366.37 505.329 367.92 505.589 369.39C505.749 370.3 506.589 371.08 507.129 371.93C507.899 371.09 509.279 370.28 509.329 369.4C509.519 365.37 509.409 361.32 509.229 357.29C509.199 356.58 508.349 355.91 507.879 355.22C507.359 355.91 506.519 356.55 506.389 357.31C505.939 359.79 505.749 362.32 505.519 364.36ZM499.569 371.14C499.839 371.13 500.109 371.12 500.369 371.11C500.679 370.2 501.199 369.3 501.259 368.38C501.489 365.02 501.629 361.65 501.679 358.28C501.699 357.24 502.179 355.67 500.259 355.64C498.459 355.61 498.289 357.06 498.299 358.31C498.319 361.76 498.439 365.22 498.639 368.67C498.699 369.5 499.249 370.31 499.569 371.14Z" fill="#E7E7D7"/>
<path d="M575.43 229.35C575.64 223.17 575.86 215.02 576.21 206.88C576.29 205.04 575.87 202.47 578.48 202.11C580.95 201.77 582.09 203.98 582.56 205.94C583.79 211.03 584.43 216.27 585.83 221.32C588.18 229.81 590.33 238.43 593.69 246.52C596.12 252.37 600.36 257.48 603.83 262.89C604.93 264.6 606.18 266.21 607.33 267.89C608.15 269.09 607.94 270.05 606.69 270.88C600.87 274.72 588.18 274.56 582.44 270.68C577.09 267.06 576.06 261.53 575.68 255.76C575.41 251.7 575.47 247.61 575.44 243.54C575.41 239.46 575.43 235.39 575.43 229.35Z" fill="#E7E7D7"/>
<path d="M394.801 269.91C395.141 269.18 395.281 268.79 395.501 268.44C396.041 267.58 396.521 266.66 397.181 265.89C410.191 250.76 415.371 232.46 418.551 213.33C419.061 210.26 420.051 207.26 420.931 204.26C421.481 202.39 423.031 201.58 424.701 202.27C425.671 202.67 426.781 204.11 426.831 205.14C427.161 211.58 427.301 218.04 427.321 224.49C427.361 235.27 427.201 246.06 427.261 256.84C427.311 266.33 421.301 273.32 411.291 273.5C405.611 273.6 400.221 272.39 394.801 269.91Z" fill="#E7E7D7"/>
<path d="M248.04 159.47C240.41 159.57 235.98 155.37 235.4 148.22C235.27 146.66 235.81 145.79 237.25 145.4C238.07 145.18 238.9 144.87 239.73 144.85C251.45 144.49 261.42 139.12 271.28 133.64C275.93 131.06 280.1 127.63 284.61 124.77C288.9 122.06 293.25 119.42 297.77 117.13C299.23 116.39 301.31 116.87 303.11 116.79C303.12 118.52 303.54 120.37 303.08 121.97C301.72 126.66 298.76 130.45 295.11 133.57C284.62 142.52 273.36 150.35 260.92 156.41C256.63 158.5 252.19 159.67 248.04 159.47Z" fill="#E7E7D7"/>
<path d="M753.921 159.54C750.461 159.93 746.651 158.72 742.891 156.93C730.151 150.86 718.591 143.05 708.061 133.69C704.531 130.55 701.641 126.9 699.911 122.46C699.231 120.72 698.471 118.77 700.101 117.22C701.761 115.64 703.821 116.15 705.571 117.12C708.911 118.97 712.161 120.96 715.391 122.99C722.941 127.72 730.351 132.68 738.001 137.23C745.591 141.75 753.851 144.46 762.711 145.32C767.631 145.8 768.351 147.08 766.811 151.77C764.731 158.09 762.571 159.48 753.921 159.54Z" fill="#E7E7D7"/>
<path d="M766.209 138.03C760.199 138.24 754.409 136.22 748.699 133.65C736.859 128.32 725.739 121.97 716.399 112.75C713.779 110.16 712.919 107.54 713.769 104.08C714.229 102.23 715.199 101.44 717.039 101.84C718.029 102.06 719.029 102.32 719.929 102.76C726.609 106.07 733.389 109.19 739.879 112.84C747.349 117.03 755.449 119.01 763.699 120.61C769.029 121.65 774.389 122.49 779.769 123.25C781.569 123.51 781.799 124.28 781.469 125.81C780.079 132.25 776.049 138.74 766.209 138.03Z" fill="#E7E7D7"/>
<path d="M237.4 137.52C228.66 137.53 224.51 134.59 221.93 127C220.93 124.06 221.13 123.67 224.13 123.08C232.54 121.43 241.05 120.2 249.32 118.02C254.57 116.63 259.49 113.95 264.47 111.66C271.09 108.62 277.61 105.37 284.22 102.28C285.79 101.55 287.52 100.59 289.14 102.29C290.37 103.59 290.56 106.96 289.47 108.81C289 109.61 288.39 110.34 287.76 111.02C282.08 117.05 275.88 122.46 268.51 126.34C263.41 129.03 258.23 131.58 253.05 134.09C247.91 136.58 242.46 137.69 237.4 137.52Z" fill="#E7E7D7"/>
<path d="M741.51 182.05C739.05 181.26 736.36 180.86 734.16 179.62C718.72 170.86 704.74 160.1 691.91 147.86C689.96 146 688.36 143.75 686.82 141.53C686.03 140.38 685.31 138.89 685.33 137.56C685.36 135.91 685.72 133.71 686.81 132.81C687.7 132.07 690.18 132.37 691.42 133.11C694.54 134.96 697.71 136.96 700.23 139.52C713.22 152.69 729.53 160.15 746.32 166.85C747.34 167.26 748.4 167.84 749.45 167.87C752.68 167.95 752.89 169.97 752.57 172.37C751.88 177.57 749.33 181.78 741.51 182.05Z" fill="#E7E7D7"/>
<path d="M261.581 182.12C255.601 181.41 251.741 178.65 250.501 173.75C249.661 170.43 250.591 169.03 253.691 167.68C263.701 163.32 273.891 159.26 283.531 154.16C289.211 151.15 294.011 146.45 299.121 142.41C302.511 139.73 305.671 136.74 309.121 134.14C311.261 132.52 313.751 130.93 316.571 132.75C318.291 133.86 318.411 137.01 316.671 140.3C315.461 142.59 314.031 144.93 312.171 146.7C299.091 159.13 284.991 170.25 269.281 179.22C266.921 180.57 264.151 181.17 261.581 182.12Z" fill="#E7E7D7"/>
<path d="M800.811 72.46C800.591 74.96 800.521 77.35 800.151 79.69C798.831 88.17 794.391 92.15 785.811 92.6C779.741 92.92 773.731 92.41 767.971 90.41C758.861 87.23 749.801 83.88 740.761 80.52C739.521 80.06 738.371 79.23 737.301 78.4C735.601 77.09 736.421 75.4 737.091 74C737.461 73.23 738.561 72.33 739.341 72.33C759.471 72.24 779.601 72.26 799.731 72.27C799.981 72.26 800.221 72.35 800.811 72.46Z" fill="#E7E7D7"/>
<path d="M214.29 98.48C217.88 98.27 221.51 98.04 225.14 97.85C238.7 97.15 251.6 93.83 263.96 88.24C267.04 86.84 270.18 85.5 273.42 84.54C277.11 83.45 278.06 84.36 278.27 88.08C278.6 93.83 275.71 97.82 271.19 100.77C263.03 106.09 254.25 110.13 244.78 112.47C241.5 113.28 238.08 113.56 234.77 114.25C227.18 115.83 221.64 112.1 216.59 107.28C214.12 104.91 213.6 102.23 214.29 98.48Z" fill="#E7E7D7"/>
<path d="M789.071 98.68C789.481 103.01 787.921 106.31 784.871 108.98C778.861 114.25 771.941 115.51 764.191 114.1C752.471 111.97 741.871 107.25 732.001 100.76C727.751 97.97 725.021 94.11 724.551 88.91C724.221 85.23 725.801 83.76 729.401 84.66C731.771 85.25 734.111 86.14 736.301 87.21C751.511 94.65 767.61 98.12 784.48 98.34C785.98 98.36 787.491 98.56 789.071 98.68Z" fill="#E7E7D7"/>
<path d="M202.039 72.4C202.769 72.35 203.429 72.25 204.089 72.25C222.079 72.28 240.069 72.31 258.059 72.37C259.919 72.38 261.789 72.54 263.649 72.71C266.349 72.96 267.509 74.95 266.129 77.3C265.479 78.4 264.379 79.5 263.229 80C247.809 86.76 232.309 93.08 214.889 91.9C210.699 91.62 207.849 89.93 205.659 86.61C202.809 82.34 202.339 77.47 202.039 72.4Z" fill="#E7E7D7"/>
<path d="M635.95 410.32C635.78 408.78 635.39 407.22 635.48 405.7C635.72 401.35 633.93 397.98 630.89 395.09C630.09 394.33 629.42 393.4 628.54 392.76C624.91 390.12 625.01 386.41 625.74 382.65C625.88 381.92 627.37 380.8 627.96 380.94C629.61 381.34 631.49 381.97 632.62 383.14C637.14 387.82 640.46 393.35 642.97 399.35C643.13 399.73 643.39 400.26 643.25 400.53C641.38 403.98 639.87 407.68 637.07 410.5C636.69 410.44 636.32 410.38 635.95 410.32Z" fill="#E7E7D7"/>
<path d="M375.859 389.32C375.899 395.07 373.959 399.75 368.879 402.89C366.909 404.11 365.779 405.95 365.659 408.36C365.609 409.37 365.429 410.39 365.179 411.37C364.559 413.76 363.919 413.96 361.849 412.53C356.419 408.77 356.199 408.16 359.769 402.63C363.129 397.44 366.729 392.4 370.239 387.31C370.669 386.68 371.089 385.89 371.719 385.6C372.649 385.17 373.819 384.83 374.749 385.05C375.269 385.17 375.609 386.48 375.829 387.3C375.989 387.92 375.859 388.64 375.859 389.32Z" fill="#E7E7D7"/>
<path d="M623.82 598.1C623.42 599.02 623.36 599.38 623.16 599.61C617.85 605.71 612.04 611.27 605.24 615.7C602.67 617.38 599.84 617.67 596.95 616.64C594.46 615.75 592.03 614.7 589.57 613.72C589.65 613.4 589.74 613.08 589.82 612.76C591.75 613 593.76 612.98 595.6 613.54C597.8 614.21 599.56 613.62 600.92 612.14C604.34 608.4 607.82 604.67 610.83 600.61C612.43 598.44 613.95 597.36 616.63 597.7C618.86 597.98 621.13 597.96 623.82 598.1Z" fill="#E7E7D7"/>
<path d="M350.031 520.44C345.281 522.74 340.081 521.2 337.971 516.87C335.251 511.3 335.601 505.37 336.631 499.47C336.901 497.93 338.001 497.59 339.291 498.46C342.231 500.45 344.801 502.71 345.021 506.64C345.121 508.33 345.151 510.08 345.641 511.66C346.301 513.78 347.331 515.78 348.301 517.79C348.751 518.72 349.431 519.54 350.031 520.44Z" fill="#E7E7D7"/>
<path d="M656.689 511.94C657.409 507.73 658.009 504.06 658.689 500.39C659.359 496.8 661.209 493.89 664.289 491.97C665.309 491.33 667.149 490.82 667.959 491.32C668.939 491.92 669.639 493.63 669.719 494.91C669.839 496.64 669.339 498.43 668.949 500.16C668.189 503.54 667.349 506.91 666.459 510.26C666.289 510.88 665.719 511.85 665.289 511.87C662.289 512.01 659.289 511.94 656.689 511.94Z" fill="#E7E7D7"/>
<path d="M410.499 610.34C408.659 613.16 406.779 616.05 404.619 619.37C397.769 613.93 391.189 608.7 384.619 603.47C384.769 603.21 384.909 602.96 385.059 602.7C388.829 601.84 392.529 601.45 396.239 603.36C400.809 605.72 405.479 607.89 410.499 610.34Z" fill="#E7E7D7"/>
<path d="M601.86 420.92C597.91 422.83 594.14 423.48 590.21 422.93C587.82 422.6 583.17 417.97 583.09 415.61C583.06 414.62 584.21 412.89 585.06 412.73C587.05 412.35 589.28 412.35 591.23 412.87C595.65 414.05 598.77 417.16 601.86 420.92Z" fill="#E7E7D7"/>
<path d="M595.27 366.22C595.53 363.95 595.64 361.64 596.08 359.41C596.54 357.12 597.85 355.33 600.31 354.83C602.45 354.4 604.16 355.26 605.38 357.01C606.85 359.13 606.31 361.18 605.03 363.18C603.71 365.25 602.469 367.38 601.109 369.43C600.459 370.4 599.72 371.4 598.81 372.1C597.06 373.43 595.719 372.78 595.539 370.58C595.419 369.15 595.52 367.69 595.52 366.25C595.43 366.23 595.35 366.22 595.27 366.22Z" fill="#E7E7D7"/>
<path d="M409.459 362.04C409.359 364.43 408.959 366.77 406.579 368.11C403.849 369.65 400.549 368.51 399.389 365.58C398.899 364.34 398.639 362.97 398.479 361.64C397.979 357.4 399.289 355.08 402.219 354.78C406.479 354.34 408.919 356.36 409.369 360.71C409.419 361.12 409.429 361.55 409.459 362.04Z" fill="#E7E7D7"/>
<path d="M478.059 642.45C477.929 643.44 477.869 644.54 477.639 645.62C476.909 649.14 474.479 650.43 471.219 648.92C469.779 648.25 468.319 647.42 467.199 646.33C465.079 644.26 465.599 641.96 468.159 640.58C469.869 639.65 471.439 638.46 473.139 637.52C475.879 636.02 477.159 636.69 477.729 639.81C477.879 640.64 477.939 641.49 478.059 642.45Z" fill="#E7E7D7"/>
<path d="M634.491 568.44C636.951 568.96 639.451 569.35 641.851 570.05C643.261 570.46 644.471 571.4 643.821 573.27C643.101 575.35 640.731 577.4 639.311 576.97C635.921 575.93 632.531 574.87 629.241 573.56C628.351 573.2 627.831 571.92 627.131 571.06C627.961 570.46 628.711 569.58 629.641 569.32C631.171 568.9 632.811 568.89 634.401 568.71C634.441 568.63 634.471 568.54 634.491 568.44Z" fill="#E7E7D7"/>
<path d="M437.611 350.78C433.831 350.74 431.931 348.41 432.871 345.33C433.751 342.46 435.681 340.31 438.571 339.25C440.311 338.61 441.791 339.23 442.691 340.82C444.121 343.33 443.271 345.72 442.071 348.05C441.001 350.12 439.181 350.77 437.611 350.78Z" fill="#E7E7D7"/>
<path d="M431.77 395.54C433.49 395.72 435.24 395.66 436.83 396.14C438.05 396.51 440.01 397.61 439.98 398.31C439.92 399.78 439.12 401.69 437.98 402.54C434.9 404.82 427.21 402.1 425.88 398.52C425.4 397.22 425.52 396.14 427.24 395.96C428.75 395.81 430.26 395.68 431.77 395.54Z" fill="#E7E7D7"/>
<path d="M390.89 494.21C393.35 499.27 386.48 509.12 379.71 510.22C378.56 507.04 386.48 495.69 390.89 494.21Z" fill="#E7E7D7"/>
<path d="M493.651 16.97C493.631 19.92 491.661 21.85 488.651 21.87C485.561 21.89 483.131 19.8 483.131 17.1C483.131 14.31 485.841 11.95 489.011 11.97C491.691 12 493.671 14.13 493.651 16.97Z" fill="#E7E7D7"/>
<path d="M573.791 586.15C573.791 580.44 573.791 574.73 573.791 569.02C573.791 567.87 573.371 566.49 575.301 566.51C577.171 566.53 579.401 565.75 580.161 568.42C580.381 569.2 580.421 570.18 580.151 570.92C578.371 575.84 576.471 580.73 574.621 585.63C574.501 585.95 574.411 586.27 574.311 586.59C574.141 586.44 573.971 586.3 573.791 586.15Z" fill="#E7E7D7"/>
<path d="M527.32 648.85C527.73 645.32 528.02 642.1 528.57 638.92C528.65 638.47 530.43 637.75 530.81 638.02C533.15 639.69 535.43 641.47 537.49 643.47C539.01 644.94 537.81 645.92 536.33 646.37C533.67 647.17 530.97 647.85 527.32 648.85Z" fill="#E7E7D7"/>
<path d="M341.4 436.97C341.52 436.75 341.95 435.19 342.51 435.14C343.82 435.03 345.79 435.19 346.42 436.04C348.22 438.45 349.65 441.17 350.88 443.93C351.57 445.47 349.88 446.9 348.22 446.47C345.17 445.68 341.39 440.88 341.4 436.97Z" fill="#E7E7D7"/>
<path d="M352.641 557.62C349.811 557.7 347.261 554.91 347.841 552.14C347.981 551.49 349.141 550.44 349.601 550.55C352.941 551.36 356.241 552.32 359.481 553.47C360.121 553.7 360.801 554.97 360.721 555.68C360.661 556.22 359.471 556.9 358.691 557.03C356.701 557.38 354.661 557.44 352.641 557.62Z" fill="#E7E7D7"/>
<path d="M403.77 429.02C402.7 428.44 401.68 427.89 400.66 427.33C401.28 426.25 401.64 424.62 402.56 424.18C404.96 423.06 407.56 422.22 410.17 421.77C411.13 421.6 413.22 422.8 413.24 423.43C413.28 424.58 412.45 426.4 411.49 426.84C409.16 427.89 406.54 428.29 403.77 429.02Z" fill="#E7E7D7"/>
<path d="M667.63 466.28C667.37 466.76 667.05 468.44 666.17 468.83C663.33 470.08 660.33 471.03 657.3 471.73C655.71 472.1 655.76 470.54 656.28 469.66C658.33 466.15 661.35 463.73 665.3 462.69C666.79 462.29 667.66 463.49 667.63 466.28Z" fill="#E7E7D7"/>
<path d="M641.82 542.94C645.01 539.31 655.46 538.34 660.02 541.44C658.92 542.31 657.97 543.68 656.98 543.72C652.36 543.89 647.72 543.7 643.09 543.6C642.73 543.6 642.38 543.24 641.82 542.94Z" fill="#E7E7D7"/>
<path d="M399.55 450.71C399.55 453.44 397.82 455.29 394.79 456.49C392.95 457.21 391.48 456.79 390.28 455.32C388.77 453.48 389.21 451.54 391.39 450.71C393.2 450.03 395.04 449.37 396.92 448.98C398.48 448.66 399.52 449.45 399.55 450.71Z" fill="#E7E7D7"/>
<path d="M452.61 589.16C452.66 588.49 452.5 587.68 452.81 587.17C453.43 586.18 454.32 585.37 455.1 584.48C455.52 585.39 456.03 586.28 456.35 587.22C457.16 589.66 457.97 592.11 458.58 594.6C458.83 595.62 458.56 596.77 458.53 597.86C457.43 597.54 455.76 597.55 455.34 596.83C453.97 594.51 453.07 591.93 451.98 589.44C452.18 589.36 452.4 589.26 452.61 589.16Z" fill="#E7E7D7"/>
<path d="M425.99 580.14C424.44 577.86 424.1 570.43 425.76 568.51C426.45 567.72 427.93 567.32 429.03 567.34C429.47 567.35 430.39 569.14 430.2 569.88C429.29 573.41 428.07 576.86 426.96 580.34C426.63 580.28 426.31 580.21 425.99 580.14Z" fill="#E7E7D7"/>
<path d="M560.4 631.33C563.29 632.89 566.19 634.45 569.08 636.02C569.1 636.31 569.12 636.61 569.14 636.9C567.02 638.17 564.94 639.51 562.75 640.66C562.36 640.86 561.09 640.38 561.02 640.05C560.49 637.36 560.16 634.63 559.76 631.92C559.98 631.72 560.19 631.53 560.4 631.33Z" fill="#E7E7D7"/>
<path d="M614.33 493.11C617.55 493.21 620.77 496.71 620.43 499.33C620.36 499.9 619.5 500.88 619.19 500.81C617.37 500.41 615.15 500.22 613.96 499.06C612.96 498.08 613.04 495.86 612.94 494.18C612.91 493.77 614.07 493.3 614.33 493.11Z" fill="#E7E7D7"/>
<path d="M598.76 552.18C596.14 551.92 592.53 548.66 592.47 546.73C592.44 545.76 592.91 544.53 593.6 543.87C593.99 543.49 595.42 543.76 596.1 544.19C598.4 545.61 599.61 547.87 599.86 550.51C599.92 551.11 599.01 551.81 598.76 552.18Z" fill="#E7E7D7"/>
<path d="M432.369 633.31C434.559 631.18 436.189 628.68 439.429 628.52C441.819 628.41 442.329 629.21 441.249 631.35C441.059 631.72 440.829 632.08 440.609 632.43C437.729 637.05 436.679 637.19 432.369 633.31Z" fill="#E7E7D7"/>
<path d="M391.03 537.01C390.98 534.33 394.3 529.6 396.45 528.99C396.97 528.84 398.04 529.06 398.16 529.38C398.47 530.18 398.77 531.37 398.39 531.98C397.16 533.97 395.7 535.84 394.17 537.61C393.72 538.13 392.68 538.5 392.02 538.38C391.53 538.28 391.21 537.28 391.03 537.01Z" fill="#E7E7D7"/>
<path d="M609.88 447.6C610.36 447.67 611.4 447.54 611.98 447.99C612.87 448.69 613.87 449.74 613.99 450.74C614.06 451.32 612.57 452.57 611.67 452.69C610.05 452.9 608.2 452.85 606.75 452.2C605.97 451.85 605.65 450.08 605.54 448.91C605.51 448.58 606.92 448.02 607.73 447.73C608.28 447.54 608.92 447.64 609.88 447.6Z" fill="#E7E7D7"/>
<path d="M608.43 528.32C606.26 528.31 603.35 525.4 603.75 523.22C603.92 522.32 605.19 521.15 606.12 520.98C608.09 520.62 610.84 523.61 610.87 525.74C610.89 527.34 609.96 528.32 608.43 528.32Z" fill="#E7E7D7"/>
<path d="M375.369 580.54C373.219 583.7 368.699 585.34 366.329 584.12C365.579 583.73 365.169 582.25 365.079 581.22C365.039 580.77 366.179 579.75 366.759 579.77C369.459 579.86 372.149 580.22 375.369 580.54Z" fill="#E7E7D7"/>
<path d="M546.77 591.18C547.13 588.89 547.15 587.23 547.71 585.77C548 585 549.159 584.29 550.039 584.13C550.439 584.06 551.479 585.38 551.539 586.11C551.649 587.68 551.38 589.3 551.14 590.87C550.88 592.52 550.01 593.99 548.2 593.55C547.45 593.37 547.07 591.72 546.77 591.18Z" fill="#E7E7D7"/>
<path d="M339.72 473.87C338.34 472.53 336.87 471.26 335.63 469.8C335.32 469.43 335.52 468.21 335.92 467.8C336.32 467.39 337.55 467.15 337.92 467.44C339.32 468.57 340.73 469.81 341.73 471.29C342.69 472.71 341.74 473.41 339.72 473.87Z" fill="#E7E7D7"/>
<path d="M651.029 435.85C652.479 433.97 653.819 432 655.439 430.28C655.919 429.77 657.189 429.99 658.089 429.87C657.999 430.93 658.329 432.49 657.759 432.95C655.929 434.41 653.769 435.47 651.739 436.68C651.499 436.4 651.269 436.13 651.029 435.85Z" fill="#E7E7D7"/>
<path d="M417.519 557.37C416.229 558.47 415.449 559.13 414.669 559.79C413.849 558.76 412.609 557.83 412.369 556.68C412.209 555.92 413.469 554.85 414.099 553.92C415.089 554.91 416.069 555.9 417.519 557.37Z" fill="#E7E7D7"/>
<path d="M389.019 477.79C389.009 480.81 388.419 481.29 385.159 481.09C384.439 478.14 385.309 477.36 389.019 477.79Z" fill="#E7E7D7"/>
</g>
<defs>
<clipPath id="clip0">
<rect width="1002.66" height="650.14" fill="white"/>
</clipPath>
</defs>
</svg>
